<?xml version="1.0" encoding="utf-8"?>
<!DOCTYPE svg PUBLIC "-//W3C//DTD SVG 1.1//EN" "http://www.w3.org/Graphics/SVG/1.1/DTD/svg11.dtd">
<svg version="1.1" id="图形" xmlns="http://www.w3.org/2000/svg" xmlns:xlink="http://www.w3.org/1999/xlink" x="0px" y="0px"
	 width="16px" height="16px" viewBox="15.167 -16.333 1000.637 1000.678"
	 enable-background="new 15.167 -16.333 1000.637 1000.678" xml:space="preserve">
<path d="M692.1,484.006c12.332-8.293,23.96-17.801,34.737-28.464c44.877-44.399,69.592-103.464,69.592-166.312
	c0-62.849-24.715-121.913-69.592-166.313c-44.762-44.286-104.245-68.676-167.492-68.676H274.54c-22.091,0-40,17.909-40,40V873.77
	c0,22.092,17.909,40,40,40h284.805c63.247,0,122.73-24.39,167.492-68.676c44.877-44.399,69.592-103.464,69.592-166.313
	s-24.715-121.912-69.592-166.312C716.06,501.807,704.432,492.3,692.1,484.006z M716.429,289.23
	c0,82.456-65.605,150.079-148.016,154.732c-3.013-0.111-6.038-0.167-9.068-0.167c-1.394,0-2.771,0.072-4.128,0.211H376.272V134.242
	h183.073C645.961,134.242,716.429,203.769,716.429,289.23z M559.345,833.77H376.272V524.006H555.22
	c1.356,0.139,2.732,0.211,4.125,0.211c3.03,0,6.056-0.056,9.068-0.167c82.41,4.652,148.016,72.276,148.016,154.731
	C716.429,764.242,645.961,833.77,559.345,833.77z"/>
</svg>
