<svg style="zoom:.75;" width="24" height="24" viewBox="0 0 24 24" fill="none" xmlns="http://www.w3.org/2000/svg">
<path fill-rule="evenodd" clip-rule="evenodd" d="M17.4881 3.43032C17.1736 3.16076 16.7001 3.19719 16.4306 3.51168C16.161 3.82618 16.1974 4.29966 16.5119 4.56922L18.4729 6.25H4.5C3.80964 6.25 3.25 6.80964 3.25 7.5V18.5C3.25 19.1904 3.80964 19.75 4.5 19.75H20C20.4142 19.75 20.75 19.4142 20.75 19C20.75 18.5858 20.4142 18.25 20 18.25H4.75V7.75H18.4728L16.5121 9.43061C16.1976 9.70018 16.1612 10.1737 16.4308 10.4881C16.7003 10.8026 17.1738 10.8391 17.4883 10.5695L20.5455 7.94897C21.1275 7.45009 21.1275 6.54969 20.5454 6.05083L17.4881 3.43032Z" fill="#414A55"/>
</svg>
