<?xml version="1.0" encoding="utf-8"?>
<svg width="16px" height="16px" version="1.1" id="图层_1" xmlns="http://www.w3.org/2000/svg" xmlns:xlink="http://www.w3.org/1999/xlink" x="0px" y="0px"
	 viewBox="0 0 850.394 850.394" enable-background="new 0 0 850.394 850.394" xml:space="preserve">
<g>
	<path fill="#040000" d="M721.72,400.633c-16.568,0-30,13.432-30,30v290.809c0,10.633-8.982,19.615-19.615,19.615H79.616
		c-10.632,0-19.615-8.982-19.615-19.615V128.952c0-10.632,8.983-19.615,19.615-19.615h592.489c16.568,0,30-13.432,30-30
		s-13.432-30-30-30H79.616C35.716,49.337,0,85.052,0,128.952v592.489c0,43.9,35.715,79.615,79.615,79.615h592.489
		c43.9,0,79.615-35.715,79.615-79.615V430.633C751.72,414.064,738.288,400.633,721.72,400.633z"/>
	<path fill="#040000" d="M841.53,106.454c-11.758-11.674-30.754-11.604-42.426,0.153L418.073,490.395L250.595,321.44
		c-11.663-11.766-30.659-11.85-42.426-0.186c-11.767,11.665-11.85,30.659-0.186,42.426L396.75,554.111
		c5.631,5.68,13.296,8.877,21.294,8.88c0.004,0,0.008,0,0.012,0c7.993,0,15.657-3.19,21.289-8.863L841.683,148.88
		C853.356,137.123,853.288,118.127,841.53,106.454z"/>
</g>
</svg>
