<?xml version="1.0" encoding="utf-8"?>
<!-- Generator: Adobe Illustrator 25.2.1, SVG Export Plug-In . SVG Version: 6.00 Build 0)  -->
<svg width="14px" height="14px" version="1.1" id="图层_1" xmlns="http://www.w3.org/2000/svg" xmlns:xlink="http://www.w3.org/1999/xlink" x="0px" y="0px"
	 viewBox="0 0 850.394 850.394" enable-background="new 0 0 850.394 850.394" xml:space="preserve">
<g>
	<path fill="#040000" d="M793.139,0H57.256C25.685,0,0,25.686,0,57.257v735.882c0,31.57,25.685,57.255,57.255,57.255h735.883
		c31.57,0,57.255-25.685,57.255-57.255V57.257C850.394,25.686,824.709,0,793.139,0z M790.394,790.394H60V60h730.393V790.394z"/>
	<path fill="#040000" d="M277.607,602.192c5.911,6.365,13.939,9.587,21.991,9.587c7.306,0,14.63-2.652,20.406-8.016
		c12.142-11.273,12.845-30.256,1.571-42.397L196.744,426.925l125.088-138.177c11.12-12.283,10.176-31.254-2.106-42.374
		c-12.284-11.12-31.255-10.177-42.374,2.106L133.804,407.048c-10.444,11.537-10.333,29.144,0.256,40.547L277.607,602.192z"/>
	<path fill="#040000" d="M530.528,603.893c5.76,5.281,13.021,7.888,20.265,7.887c8.114-0.001,16.205-3.274,22.121-9.728
		L716.462,445.47c10.516-11.47,10.516-29.075,0-40.545L572.914,248.341c-11.196-12.213-30.174-13.037-42.386-1.841
		c-12.213,11.196-13.037,30.173-1.841,42.387l124.962,136.31l-124.962,136.31C517.491,573.72,518.314,592.696,530.528,603.893z"/>
	<path fill="#040000" d="M371.52,692.664c1.993,0.399,3.977,0.592,5.935,0.592c13.999,0,26.521-9.852,29.382-24.103l95.547-476.107
		c3.261-16.245-7.266-32.056-23.51-35.316c-16.242-3.256-32.057,7.266-35.316,23.511l-95.548,476.107
		C344.75,673.592,355.275,689.403,371.52,692.664z"/>
</g>
</svg>
