<?xml version="1.0" encoding="utf-8"?>
<!-- Generator: Adobe Illustrator 25.2.1, SVG Export Plug-In . SVG Version: 6.00 Build 0)  -->
<svg width="14px" height="14px" version="1.1" id="图层_1" xmlns="http://www.w3.org/2000/svg" xmlns:xlink="http://www.w3.org/1999/xlink" x="0px" y="0px"
	 viewBox="0 0 850.394 850.394" enable-background="new 0 0 850.394 850.394" xml:space="preserve">
<g>
	<path fill="#040000" d="M819.471,395.196H466.85c-16.568,0-30,13.432-30,30s13.432,30,30,30h352.621c16.568,0,30-13.432,30-30
		S836.039,395.196,819.471,395.196z"/>
	<path fill="#040000" d="M313.881,137.801h505.59c16.568,0,30-13.432,30-30s-13.432-30-30-30h-505.59c-16.568,0-30,13.432-30,30
		S297.312,137.801,313.881,137.801z"/>
	<path fill="#040000" d="M819.471,712.593h-505.59c-16.568,0-30,13.432-30,30s13.432,30,30,30h505.59c16.568,0,30-13.432,30-30
		S836.039,712.593,819.471,712.593z"/>
	<path fill="#040000" d="M144.308,712.593H30.923c-16.568,0-30,13.432-30,30s13.432,30,30,30h113.384c16.568,0,30-13.432,30-30
		S160.876,712.593,144.308,712.593z"/>
	<path fill="#040000" d="M327.277,425.197c0-16.568-13.432-30-30-30H183.892c-16.568,0-30,13.432-30,30c0,16.569,13.432,30,30,30
		h113.385C313.845,455.197,327.277,441.766,327.277,425.197z"/>
	<path fill="#040000" d="M30.923,137.8h113.384c16.568,0,30-13.432,30-30s-13.432-30-30-30H30.923c-16.568,0-30,13.432-30,30
		S14.355,137.8,30.923,137.8z"/>
</g>
</svg>
