<svg width="18px" height="18px" version="1.1" id="图层_1" xmlns="http://www.w3.org/2000/svg" xmlns:xlink="http://www.w3.org/1999/xlink" x="0px" y="0px" viewBox="-10 -10 850.394 900" enable-background="new 0 0 850.394 850.394" xml:space="preserve"><g><path fill="#3f4a56" d="M153.27,628.78h261.29c10.118,0,19.555-5.101,25.098-13.565l18.591-28.39l42.448,25.13c4.796,2.839,10.059,4.189,15.255,4.189c10.252,0,20.242-5.26,25.844-14.722l210.687-355.874c4.053-6.847,5.221-15.023,3.245-22.73c-1.975-7.708-6.931-14.314-13.777-18.368L403.679,4.186c-14.257-8.442-32.658-3.727-41.098,10.532L151.894,370.591c-4.053,6.847-5.221,15.023-3.246,22.73s6.931,14.314,13.778,18.368l49.422,29.259l-84.393,142.548c-5.49,9.273-5.584,20.778-0.248,30.141C132.545,623,142.494,628.78,153.27,628.78z M398.927,71.099l286.641,169.699l-180.12,304.244l-41.375-24.495c-0.051-0.03-0.102-0.061-0.153-0.09L268.488,404.755c-0.086-0.052-0.168-0.108-0.255-0.159c-0.087-0.052-0.176-0.096-0.263-0.147l-49.163-29.105L398.927,71.099z"></path><rect id="tox-icon-highlight-bg-color__color" x="50.693" y="764.661" width="750" height="120"></rect></g></svg>