<svg width="18px" height="18px" version="1.1" id="图层_1" xmlns="http://www.w3.org/2000/svg" xmlns:xlink="http://www.w3.org/1999/xlink" x="0px" y="0px" viewBox="40 30 850 850" enable-background="new 0 0 850.394 850.394" xml:space="preserve"><g><path fill="#3f4a56" d="M273.399,698.123c20.407,8.459,43.808-1.229,52.267-21.639l75.123-181.271h234.607l69.538,180.348c6.124,15.882,21.271,25.622,37.331,25.62c4.783,0,9.651-0.865,14.382-2.688c20.612-7.948,30.879-31.101,22.932-51.713L560.982,79.851c-5.884-15.262-20.468-25.403-36.824-25.606c-0.168-0.002-0.333-0.003-0.5-0.003c-16.157,0-30.751,9.73-36.95,24.686l-234.947,566.93C243.303,666.266,252.991,689.666,273.399,698.123z M522.322,201.954l82.229,213.26H433.942L522.322,201.954z"></path><rect id="tox-icon-text-color__color" x="154.124" y="766.839" width="828.662" height="120"></rect></g></svg>