<svg height="16" width="16" version="1.1" id="图形" xmlns="http://www.w3.org/2000/svg" xmlns:xlink="http://www.w3.org/1999/xlink" x="0px" y="0px"
	 viewBox="90.288 58.809 850.394 850.394" enable-background="new 90.288 58.809 850.394 850.394" xml:space="preserve">
<path d="M909.321,297.599c-0.019-0.377-0.051-0.751-0.083-1.124c-0.01-0.113-0.015-0.227-0.026-0.34
	c-0.438-4.466-1.858-8.642-4.037-12.315c-0.014-0.024-0.028-0.049-0.042-0.073c-0.213-0.357-0.435-0.707-0.663-1.055
	c-0.045-0.069-0.087-0.139-0.133-0.207c-0.203-0.304-0.414-0.602-0.627-0.898c-0.076-0.106-0.148-0.213-0.226-0.318
	c-0.191-0.259-0.391-0.511-0.59-0.763c-0.107-0.135-0.21-0.272-0.319-0.405c-0.183-0.224-0.375-0.441-0.564-0.659
	c-0.132-0.152-0.26-0.306-0.395-0.456c-0.185-0.205-0.378-0.402-0.568-0.601c-0.134-0.14-0.262-0.285-0.399-0.422L694.818,70.635
	c-5.369-8.12-14.576-13.479-25.038-13.479c-0.139,0-0.275,0.009-0.414,0.01c-0.14-0.002-0.28-0.01-0.42-0.01H304.756
	c-24.185,0-43.861,19.64-43.861,43.78v97.647h-95.423c-24.185,0-43.861,19.64-43.861,43.78v626.426
	c0,12.937,5.649,24.903,15.5,32.832c7.505,6.042,16.91,9.221,26.778,9.221c2.05-0.001,4.121-0.138,6.198-0.415H725.14
	c9.149,1.381,18.693-0.767,26.651-6.212c11.277-7.717,18.283-21.291,18.283-35.426v-97.646h95.423
	c24.186,0,43.861-19.64,43.861-43.78V299.1C909.359,298.598,909.346,298.098,909.321,297.599z M699.78,160.795L807.302,269.1H699.78
	V160.795z M710.075,850.426H181.611V258.582h79.284v468.779c0,24.141,19.676,43.78,43.861,43.78h405.318V850.426z M320.895,711.142
	V117.156H639.78v164.165c0,26.346,21.48,47.779,47.883,47.779h161.696v382.042H320.895z"/>
</svg>
