<?xml version="1.0" encoding="utf-8"?>
<svg width="16px" height="16px" version="1.1" id="图层_1" xmlns="http://www.w3.org/2000/svg" xmlns:xlink="http://www.w3.org/1999/xlink" x="0px" y="0px"
	 viewBox="0 0 850.394 850.394" enable-background="new 0 0 850.394 850.394" xml:space="preserve">
<g>
	<path fill="#3E4955" d="M793.139,0H57.256C25.685,0,0,25.686,0,57.257v735.882c0,31.57,25.685,57.255,57.255,57.255h735.883
		c31.57,0,57.255-25.685,57.255-57.255V57.257C850.394,25.686,824.709,0,793.139,0z M790.394,790.394H60V60h730.393V790.394z"/>
	<path fill="#3E4955" d="M113.406,673.666c6.223,0,12.5-1.93,17.877-5.928l199.039-148l110.848,110.84
		c10.679,10.677,27.626,11.752,39.568,2.516l274.62-212.431c13.105-10.137,15.512-28.979,5.374-42.084
		c-10.139-13.104-28.979-15.51-42.085-5.374l-253.729,196.27L354.425,458.99c-10.523-10.523-27.17-11.741-39.113-2.86L95.482,619.59
		c-13.296,9.887-16.06,28.68-6.173,41.975C95.197,669.483,104.243,673.666,113.406,673.666z"/>
	<circle fill="#3E4955" cx="276.266" cy="259.898" r="56.693"/>
</g>
</svg>
