<?xml version="1.0" encoding="UTF-8"?>
<svg width="12" height="12" version="1.1" id="图层_1" xmlns="http://www.w3.org/2000/svg" xmlns:xlink="http://www.w3.org/1999/xlink" x="0px" y="0px"
      viewBox="0 0 850.394 850.394" enable-background="new 0 0 850.394 850.394" xml:space="preserve">
   <path fill="#040000" d="M843.944,834.639c0.081-0.102,0.162-0.204,0.241-0.307c0.407-0.529,0.799-1.071,1.171-1.627
     c0.005-0.007,0.009-0.014,0.013-0.021c0.379-0.568,0.734-1.152,1.074-1.746c0.03-0.052,0.06-0.104,0.09-0.156
     c0.691-1.225,1.297-2.502,1.813-3.826c0.01-0.026,0.021-0.052,0.031-0.078c0.506-1.308,0.921-2.66,1.241-4.049
     c0.016-0.069,0.032-0.138,0.048-0.207c0.295-1.324,0.502-2.68,0.616-4.064c0.013-0.154,0.025-0.308,0.035-0.462
     c0.045-0.671,0.076-1.347,0.076-2.029l-0.001-223.939c0-16.568-13.432-30-30-30s-30,13.432-30,30l0.001,152.072L467.859,425.197
     l322.535-319.004l-0.001,148.914c0,16.568,13.432,30,30,30c16.567,0,30-13.432,30-30l0.001-220.78c0-0.683-0.031-1.358-0.076-2.029
     c-0.01-0.154-0.022-0.308-0.035-0.462c-0.114-1.383-0.321-2.74-0.616-4.064c-0.016-0.069-0.032-0.138-0.048-0.208
     c-0.32-1.389-0.736-2.741-1.241-4.048c-0.01-0.026-0.021-0.052-0.031-0.078c-0.516-1.323-1.121-2.6-1.812-3.824
     c-0.03-0.054-0.062-0.107-0.092-0.16c-0.339-0.592-0.693-1.173-1.07-1.739c-0.006-0.009-0.011-0.018-0.017-0.027
     c-0.371-0.555-0.762-1.095-1.168-1.623c-0.081-0.106-0.164-0.209-0.247-0.314c-0.363-0.459-0.736-0.908-1.124-1.345
     c-0.056-0.063-0.109-0.128-0.165-0.19c-0.422-0.467-0.863-0.918-1.314-1.358c-0.124-0.121-0.249-0.239-0.375-0.358
     c-0.42-0.396-0.85-0.782-1.292-1.154c-0.055-0.046-0.107-0.095-0.162-0.14c-0.501-0.415-1.02-0.808-1.547-1.19
     c-0.112-0.081-0.225-0.161-0.339-0.241c-1.13-0.795-2.318-1.512-3.555-2.148c-0.044-0.023-0.088-0.045-0.132-0.068
     c-1.308-0.663-2.671-1.233-4.08-1.701c-0.011-0.004-0.022-0.007-0.033-0.011c-1.342-0.444-2.725-0.795-4.143-1.047
     c-0.091-0.016-0.182-0.033-0.274-0.049c-0.672-0.113-1.349-0.209-2.035-0.277c-0.043-0.004-0.087-0.006-0.13-0.01
     c-0.596-0.056-1.199-0.091-1.805-0.112c-0.184-0.006-0.368-0.011-0.553-0.014c-0.164-0.003-0.326-0.012-0.49-0.012L573.745,4.325
     c-16.567,0-30,13.433-30,30c0,16.568,13.432,30,30,30L747.4,64.326L425.197,383.002L102.994,64.326l168.531-0.001
     c16.569,0,30-13.432,30-30c0-16.569-13.432-30-30-30L30,4.326c-0.164,0-0.326,0.01-0.49,0.012c-0.184,0.003-0.368,0.008-0.553,0.014
     c-0.606,0.021-1.208,0.056-1.804,0.112c-0.044,0.004-0.087,0.005-0.131,0.01c-0.686,0.068-1.363,0.164-2.035,0.277
     c-0.091,0.015-0.182,0.032-0.273,0.049c-1.419,0.252-2.803,0.603-4.145,1.048c-0.01,0.003-0.02,0.007-0.03,0.01
     c-1.411,0.469-2.775,1.039-4.084,1.703c-0.043,0.021-0.085,0.043-0.127,0.065c-1.24,0.636-2.429,1.355-3.561,2.151
     c-0.112,0.078-0.223,0.157-0.333,0.237c-0.529,0.383-1.049,0.778-1.552,1.194c-0.052,0.043-0.101,0.088-0.152,0.132
     c-0.446,0.375-0.879,0.764-1.303,1.164c-0.124,0.117-0.248,0.234-0.37,0.353c-0.452,0.441-0.894,0.893-1.317,1.362
     c-0.054,0.06-0.105,0.123-0.158,0.183c-0.391,0.439-0.766,0.891-1.131,1.353c-0.081,0.103-0.163,0.205-0.243,0.309
     c-0.407,0.529-0.799,1.07-1.17,1.626c-0.004,0.007-0.009,0.014-0.013,0.02C4.646,18.277,4.29,18.86,3.95,19.455
     c-0.03,0.052-0.06,0.104-0.09,0.157c-0.691,1.225-1.297,2.503-1.813,3.827c-0.01,0.025-0.02,0.05-0.03,0.075
     c-0.506,1.309-0.922,2.661-1.242,4.051c-0.016,0.069-0.032,0.137-0.048,0.206c-0.295,1.324-0.502,2.681-0.616,4.064
     c-0.013,0.154-0.025,0.307-0.035,0.462C0.032,32.968,0,33.643,0,34.326l0.001,220.78c0,16.569,13.432,30,30,30
     c16.569,0,30-13.432,30-30l0-148.914l322.535,319.004L60.001,744.2l0-152.072c0-16.568-13.431-30-30-30c-16.568,0-30,13.432-30,30
     L0,816.067c0,0.683,0.031,1.358,0.076,2.029c0.01,0.154,0.022,0.308,0.035,0.462c0.114,1.384,0.321,2.74,0.616,4.065
     c0.015,0.069,0.032,0.137,0.047,0.206c0.32,1.39,0.736,2.743,1.242,4.051c0.01,0.025,0.02,0.05,0.029,0.075
     c0.516,1.325,1.123,2.604,1.814,3.829c0.029,0.051,0.058,0.101,0.087,0.152c0.341,0.597,0.698,1.183,1.078,1.753
     c0.003,0.005,0.006,0.01,0.009,0.014c0.372,0.558,0.766,1.1,1.174,1.631c0.078,0.102,0.158,0.202,0.238,0.303
     c0.367,0.465,0.746,0.921,1.14,1.364c0.051,0.057,0.099,0.117,0.151,0.174c0.425,0.471,0.869,0.924,1.323,1.367
     c0.12,0.117,0.241,0.231,0.363,0.346c0.427,0.403,0.864,0.796,1.314,1.173c0.048,0.041,0.094,0.084,0.143,0.124
     c0.504,0.417,1.026,0.813,1.557,1.198c0.108,0.078,0.217,0.155,0.326,0.232c1.134,0.798,2.325,1.518,3.567,2.155
     c0.041,0.021,0.081,0.042,0.122,0.062c2.401,1.218,4.985,2.125,7.704,2.662c0.008,0.002,0.016,0.003,0.024,0.004
     c0.463,0.091,0.928,0.173,1.398,0.242c0.137,0.02,0.275,0.034,0.412,0.052c0.341,0.046,0.682,0.092,1.027,0.126
     c0.336,0.034,0.673,0.055,1.009,0.077c0.152,0.01,0.302,0.026,0.454,0.033c0.505,0.026,1.009,0.039,1.513,0.039
     c0.013,0,0.027-0.001,0.04-0.001l240.391,0.001c16.567,0,30-13.433,30-30c0-16.568-13.431-30-30-30l-167.432-0.001l322.204-318.676
     l322.204,318.676l-172.556,0.001c-16.568,0-30,13.432-30,30s13.432,30,30,30l245.515-0.001c0.013,0,0.027,0.001,0.04,0.001
     c0.504,0,1.008-0.014,1.513-0.039c0.153-0.008,0.303-0.023,0.456-0.033c0.336-0.022,0.672-0.043,1.008-0.077
     c0.345-0.034,0.686-0.081,1.027-0.126c0.137-0.018,0.274-0.032,0.411-0.052c0.469-0.069,0.933-0.151,1.394-0.241
     c0.009-0.002,0.019-0.003,0.028-0.005c2.718-0.537,5.301-1.444,7.701-2.661c0.042-0.021,0.084-0.043,0.127-0.065
     c1.24-0.636,2.429-1.355,3.562-2.151c0.111-0.078,0.222-0.156,0.332-0.236c0.529-0.383,1.05-0.778,1.552-1.194
     c0.052-0.043,0.101-0.089,0.153-0.133c0.446-0.375,0.879-0.764,1.303-1.164c0.124-0.117,0.247-0.233,0.368-0.351
     c0.453-0.442,0.895-0.894,1.319-1.363c0.054-0.059,0.104-0.121,0.157-0.181C843.203,835.555,843.579,835.102,843.944,834.639z"/>
   </svg>