<?xml version="1.0" encoding="utf-8"?>
<svg version="1.1" id="图形" xmlns="http://www.w3.org/2000/svg" xmlns:xlink="http://www.w3.org/1999/xlink" x="0px" y="0px"
	 width="16px" height="16px" viewBox="15.167 -16.333 1000.637 1000.678"
	 enable-background="new 15.167 -16.333 1000.637 1000.678" xml:space="preserve">
<g>
	<path d="M940.681,249.124H430.446c-22.091,0-40,17.909-40,40s17.909,40,40,40h510.235c22.092,0,40-17.909,40-40
		S962.773,249.124,940.681,249.124z"/>
	<path d="M940.681,444.006H430.446c-22.091,0-40,17.909-40,40c0,22.092,17.909,40,40,40h510.235c22.092,0,40-17.908,40-40
		C980.681,461.915,962.773,444.006,940.681,444.006z"/>
	<path d="M90.289,134.242h850.393c22.092,0,40-17.909,40-40s-17.908-40-40-40H90.289c-22.091,0-40,17.909-40,40
		S68.197,134.242,90.289,134.242z"/>
	<path d="M940.681,833.77H90.289c-22.091,0-40,17.908-40,40s17.909,40,40,40h850.393c22.092,0,40-17.908,40-40
		S962.773,833.77,940.681,833.77z"/>
	<path d="M940.681,638.888H430.446c-22.091,0-40,17.908-40,40s17.909,40,40,40h510.235c22.092,0,40-17.908,40-40
		S962.773,638.888,940.681,638.888z"/>
	<path d="M86.462,314.611c-3.737,1.548-6.173,5.194-6.173,9.239v320.313c0,4.045,2.437,7.691,6.173,9.239
		c1.237,0.512,2.536,0.761,3.824,0.761c2.603,0,5.161-1.016,7.074-2.929l160.156-160.156c3.905-3.905,3.905-10.237,0-14.143
		L97.36,316.779C94.499,313.919,90.199,313.061,86.462,314.611z"/>
</g>
</svg>
