<svg style="zoom:.75;" width="24" height="24" viewBox="0 0 24 24" fill="none" xmlns="http://www.w3.org/2000/svg">
<path fill-rule="evenodd" clip-rule="evenodd" d="M6.25 2.5C6.25 2.08579 6.58579 1.75 7 1.75H17C17.4142 1.75 17.75 2.08579 17.75 2.5C17.75 2.91421 17.4142 3.25 17 3.25H7C6.58579 3.25 6.25 2.91421 6.25 2.5ZM1.75 4.5C1.75 4.08579 2.08579 3.75 2.5 3.75H21.5C21.9142 3.75 22.25 4.08579 22.25 4.5C22.25 4.91421 21.9142 5.25 21.5 5.25H19.75V21C19.75 21.4142 19.4142 21.75 19 21.75H5C4.80109 21.75 4.61032 21.671 4.46967 21.5303C4.32902 21.3897 4.25 21.1989 4.25 21V5.25H2.5C2.08579 5.25 1.75 4.91421 1.75 4.5ZM5.75 5.25V20.25H18.25V5.25H5.75ZM9.5 7.25C9.91421 7.25 10.25 7.58579 10.25 8V17C10.25 17.4142 9.91421 17.75 9.5 17.75C9.08579 17.75 8.75 17.4142 8.75 17V8C8.75 7.58579 9.08579 7.25 9.5 7.25ZM15.25 8C15.25 7.58579 14.9142 7.25 14.5 7.25C14.0858 7.25 13.75 7.58579 13.75 8V17C13.75 17.4142 14.0858 17.75 14.5 17.75C14.9142 17.75 15.25 17.4142 15.25 17V8Z" fill="#414A55"/>
</svg>
