<svg width="25" height="24" viewBox="0 0 25 24" fill="none" xmlns="http://www.w3.org/2000/svg">
<path fill-rule="evenodd" clip-rule="evenodd" d="M14.4166 4.06934C16.1196 2.36637 18.8807 2.36637 20.5836 4.06934C22.2866 5.77231 22.2866 8.53337 20.5836 10.2363L18.3496 12.4704C18.0567 12.7633 17.5818 12.7633 17.2889 12.4704C16.996 12.1775 16.996 11.7026 17.2889 11.4097L19.523 9.17568C20.6401 8.0585 20.6401 6.24719 19.523 5.13C18.4058 4.01282 16.5945 4.01282 15.4773 5.13L11.6475 8.95976C10.5303 10.0769 10.5303 11.8883 11.6475 13.0054L12.0605 13.4185C12.3534 13.7113 12.3534 14.1862 12.0605 14.4791C11.7676 14.772 11.2928 14.772 10.9999 14.4791L10.5869 14.0661C8.88389 12.3631 8.88389 9.60207 10.5869 7.8991L14.4166 4.06934ZM10.6901 20.1301C8.9871 21.8331 6.22604 21.8331 4.52307 20.1301C2.8201 18.4272 2.82009 15.6661 4.52307 13.9631L6.75709 11.7291C7.04998 11.4362 7.52486 11.4362 7.81775 11.7291C8.11064 12.022 8.11064 12.4969 7.81775 12.7898L5.58373 15.0238C4.46654 16.141 4.46654 17.9523 5.58373 19.0695C6.70091 20.1866 8.51223 20.1866 9.62941 19.0695L13.4592 15.2397C14.5763 14.1225 14.5763 12.3112 13.4592 11.194L13.0462 10.781C12.7533 10.4881 12.7533 10.0132 13.0462 9.72035C13.339 9.42746 13.8139 9.42746 14.1068 9.72035L14.5198 10.1334C16.2228 11.8363 16.2228 14.5974 14.5198 16.3004L10.6901 20.1301Z" fill="#182B50"/>
</svg>
