<svg style="zoom:.75;" width="24" height="24" viewBox="0 0 24 24" fill="none" xmlns="http://www.w3.org/2000/svg">
<path fill-rule="evenodd" clip-rule="evenodd" d="M13.9165 4.06934C15.6195 2.36637 18.3805 2.36637 20.0835 4.06934C21.7865 5.77231 21.7865 8.53337 20.0835 10.2363L17.8495 12.4704C17.5566 12.7633 17.0817 12.7633 16.7888 12.4704C16.4959 12.1775 16.4959 11.7026 16.7888 11.4097L19.0228 9.17568C20.14 8.0585 20.14 6.24719 19.0228 5.13C17.9057 4.01282 16.0943 4.01282 14.9772 5.13L11.1474 8.95976C10.0302 10.0769 10.0302 11.8883 11.1474 13.0054L11.5604 13.4185C11.8533 13.7113 11.8533 14.1862 11.5604 14.4791C11.2675 14.772 10.7926 14.772 10.4998 14.4791L10.0867 14.0661C8.38377 12.3631 8.38377 9.60207 10.0867 7.8991L13.9165 4.06934ZM10.1899 20.1301C8.48698 21.8331 5.72592 21.8331 4.02294 20.1301C2.31997 18.4272 2.31997 15.6661 4.02294 13.9631L6.25697 11.7291C6.54986 11.4362 7.02473 11.4362 7.31763 11.7291C7.61052 12.022 7.61052 12.4969 7.31763 12.7898L5.0836 15.0238C3.96642 16.141 3.96642 17.9523 5.0836 19.0695C6.20079 20.1866 8.0121 20.1866 9.12929 19.0695L12.959 15.2397C14.0762 14.1225 14.0762 12.3112 12.959 11.194L12.546 10.781C12.2531 10.4881 12.2531 10.0132 12.546 9.72035C12.8389 9.42746 13.3138 9.42746 13.6067 9.72035L14.0197 10.1334C15.7227 11.8363 15.7227 14.5974 14.0197 16.3004L10.1899 20.1301Z" fill="#414A55"/>
</svg>
