<svg width="16" height="17" xmlns="http://www.w3.org/2000/svg" xmlns:xlink="http://www.w3.org/1999/xlink" version="1.1" id="图层_1" x="0px" y="0px" viewBox="0 0 850.394 850.394" enable-background="new 0 0 850.394 850.394" xml:space="preserve" height="17">
<g><path fill="#3E4955" d="M430.069,722.008c-31.28,0-56.692,25.411-56.692,56.693c0,31.336,25.412,56.693,56.692,56.693   c31.337,0,56.694-25.357,56.694-56.693C486.763,747.419,461.406,722.008,430.069,722.008z"/><path fill="#3E4955" d="M242.479-12.716c-11.21-4.644-24.114-2.077-32.694,6.503l-85.04,85.04   c-11.716,11.716-11.716,30.711,0,42.427s30.711,11.716,42.427,0l33.826-33.827v225.535c0,16.568,13.432,30,30,30s30-13.432,30-30   V15C260.999,2.866,253.69-8.073,242.479-12.716z"/><path fill="#3E4955" d="M242.479,479.715c-11.21-4.643-24.114-2.076-32.694,6.504l-85.04,85.04   c-11.716,11.716-11.715,30.71,0,42.426c11.715,11.717,30.71,11.717,42.426,0l33.826-33.826v225.534c0,16.568,13.432,30,30,30   s30-13.432,30-30V507.432C260.999,495.298,253.69,484.358,242.479,479.715z"/><path fill="#3E4955" d="M715.915,479.715c-11.213-4.644-24.115-2.076-32.693,6.504l-85.04,85.04   c-11.716,11.716-11.716,30.71,0,42.426c11.715,11.717,30.711,11.717,42.426,0l33.827-33.826v225.534c0,16.568,13.432,30,30,30   s30-13.432,30-30V507.432C734.435,495.298,727.125,484.358,715.915,479.715z"/></g>
</svg>