<svg width="16" height="16" version="1.1" id="图层_1" xmlns="http://www.w3.org/2000/svg" xmlns:xlink="http://www.w3.org/1999/xlink" x="0px" y="0px"
	 viewBox="0 0 850.394 850.394" enable-background="new 0 0 850.394 850.394" xml:space="preserve">
<g>
	<path fill="#040000" d="M820.393,568.429c-16.568,0-30,13.432-30,30v191.964H60V60.001H245.18c16.568,0,30-13.432,30-30
		s-13.432-30-30-30H30c-16.568,0-30,13.432-30,30v790.392c0,16.568,13.432,30,30,30h790.392c16.568,0,30-13.432,30-30V598.429
		C850.393,581.86,836.961,568.429,820.393,568.429z"/>
	<path fill="#040000" d="M850.355,28.505c-0.009-0.187-0.027-0.371-0.04-0.557c-0.021-0.301-0.039-0.601-0.069-0.902
		c-0.027-0.273-0.063-0.542-0.097-0.812c-0.026-0.21-0.049-0.42-0.08-0.629c-0.045-0.308-0.1-0.612-0.155-0.917
		c-0.031-0.172-0.058-0.344-0.092-0.516c-0.062-0.315-0.133-0.627-0.205-0.939c-0.038-0.163-0.072-0.326-0.113-0.488
		c-0.076-0.307-0.161-0.61-0.246-0.913c-0.048-0.169-0.093-0.338-0.144-0.506c-0.087-0.287-0.181-0.57-0.275-0.854
		c-0.062-0.185-0.122-0.37-0.187-0.554c-0.092-0.259-0.191-0.515-0.291-0.77c-0.08-0.206-0.159-0.413-0.244-0.618
		c-0.095-0.228-0.195-0.454-0.295-0.679c-0.101-0.228-0.201-0.456-0.308-0.682c-0.094-0.199-0.194-0.394-0.292-0.591
		c-0.123-0.245-0.245-0.49-0.375-0.733c-0.095-0.177-0.195-0.351-0.293-0.526c-0.142-0.253-0.284-0.506-0.434-0.755
		c-0.1-0.167-0.205-0.33-0.309-0.494c-0.156-0.248-0.311-0.496-0.475-0.74c-0.116-0.173-0.237-0.341-0.357-0.512
		c-0.159-0.227-0.316-0.454-0.481-0.677c-0.149-0.201-0.306-0.397-0.46-0.594c-0.145-0.185-0.286-0.372-0.436-0.554
		c-0.226-0.276-0.461-0.543-0.696-0.811c-0.087-0.099-0.169-0.2-0.258-0.297c-0.677-0.749-1.391-1.463-2.14-2.14
		c-0.081-0.073-0.165-0.141-0.246-0.213c-0.285-0.252-0.572-0.503-0.866-0.744c-0.162-0.133-0.329-0.258-0.493-0.387
		c-0.219-0.172-0.436-0.345-0.66-0.511c-0.2-0.149-0.404-0.289-0.607-0.432c-0.195-0.137-0.388-0.276-0.587-0.409
		c-0.217-0.145-0.438-0.283-0.659-0.422c-0.193-0.122-0.386-0.246-0.582-0.364c-0.218-0.131-0.438-0.254-0.659-0.379
		c-0.209-0.118-0.418-0.238-0.63-0.351c-0.205-0.109-0.411-0.212-0.618-0.316c-0.237-0.12-0.473-0.239-0.713-0.353
		c-0.182-0.086-0.365-0.166-0.548-0.248c-0.272-0.122-0.545-0.243-0.821-0.357c-0.152-0.063-0.306-0.121-0.459-0.181
		c-0.31-0.122-0.621-0.241-0.936-0.353c-0.122-0.043-0.244-0.083-0.367-0.124c-0.347-0.118-0.695-0.232-1.047-0.338
		c-0.094-0.028-0.188-0.053-0.281-0.08c-0.378-0.109-0.758-0.214-1.142-0.308c-0.072-0.018-0.144-0.033-0.216-0.05
		c-0.402-0.096-0.806-0.186-1.215-0.266c-0.056-0.011-0.113-0.019-0.169-0.03c-0.419-0.079-0.841-0.152-1.266-0.214
		c-0.049-0.007-0.099-0.012-0.148-0.019c-0.429-0.06-0.86-0.114-1.294-0.155c-0.038-0.004-0.076-0.005-0.114-0.009
		c-0.914-0.084-1.838-0.133-2.773-0.133H445.517c-16.568,0-30,13.432-30,30s13.432,30,30,30H747.97L403.984,403.986
		c-11.716,11.716-11.716,30.71,0,42.426c5.858,5.858,13.536,8.787,21.213,8.787c7.677,0,15.355-2.929,21.213-8.787l343.981-343.981
		v295.661c0,16.568,13.432,30,30,30s30-13.432,30-30V30.035C850.393,29.525,850.38,29.015,850.355,28.505z"/>
</g>
</svg>
