<?xml version="1.0" encoding="utf-8"?>
<svg version="1.1" id="图形" xmlns="http://www.w3.org/2000/svg" xmlns:xlink="http://www.w3.org/1999/xlink" x="0px" y="0px"
	 width="16px" height="16px" viewBox="15.167 -16.333 1000.637 1000.678"
	 enable-background="new 15.167 -16.333 1000.637 1000.678" xml:space="preserve">
<g>
	<path d="M940.681,249.124H430.446c-22.091,0-40,17.909-40,40s17.909,40,40,40h510.235c22.092,0,40-17.909,40-40
		S962.773,249.124,940.681,249.124z"/>
	<path d="M940.681,444.006H430.446c-22.091,0-40,17.909-40,40c0,22.092,17.909,40,40,40h510.235c22.092,0,40-17.908,40-40
		C980.681,461.915,962.773,444.006,940.681,444.006z"/>
	<path d="M90.289,134.242h850.393c22.092,0,40-17.909,40-40s-17.908-40-40-40H90.289c-22.091,0-40,17.909-40,40
		S68.197,134.242,90.289,134.242z"/>
	<path d="M940.681,833.77H90.289c-22.091,0-40,17.908-40,40s17.909,40,40,40h850.393c22.092,0,40-17.908,40-40
		S962.773,833.77,940.681,833.77z"/>
	<path d="M940.681,638.888H430.446c-22.091,0-40,17.908-40,40s17.909,40,40,40h510.235c22.092,0,40-17.908,40-40
		S962.773,638.888,940.681,638.888z"/>
	<path d="M243.374,316.779L83.217,476.935c-3.905,3.905-3.905,10.237,0,14.143l160.156,160.156c1.914,1.913,4.471,2.929,7.074,2.929
		c1.288,0,2.587-0.249,3.824-0.761c3.737-1.548,6.173-5.194,6.173-9.239V323.85c0-4.044-2.437-7.691-6.173-9.239
		C250.535,313.063,246.233,313.919,243.374,316.779z"/>
</g>
</svg>
