<?xml version="1.0" encoding="utf-8"?>
<!-- Generator: Adobe Illustrator 23.0.2, SVG Export Plug-In . SVG Version: 6.00 Build 0)  -->
<svg version="1.1" id="图层_1" xmlns="http://www.w3.org/2000/svg" xmlns:xlink="http://www.w3.org/1999/xlink" x="0px" y="0px"
	 viewBox="0 0 850.394 850.394" enable-background="new 0 0 850.394 850.394" xml:space="preserve">
<g>
	<path fill="currentColor" d="M819.239,265.205c-21.402-52.767-52.833-100.1-93.417-140.684c-40.576-40.576-87.9-71.998-140.659-93.391
		C534.218,10.471,480.395-0.002,425.188,0C369.98,0.003,316.155,10.481,265.207,31.145c-52.763,21.4-100.094,52.828-140.678,93.412
		c-40.567,40.567-71.985,87.888-93.381,140.648C10.488,316.151,0.008,369.976,0,425.185c-0.007,55.214,10.459,109.043,31.11,159.991
		c21.389,52.77,52.808,100.1,93.383,140.674c40.583,40.583,87.92,72.011,140.698,93.408c50.956,20.66,104.792,31.135,160.013,31.135
		c55.217,0,109.049-10.474,159.999-31.13c52.766-21.392,100.09-52.809,140.656-93.376c40.584-40.584,72.011-87.917,93.407-140.687
		c20.659-50.952,31.132-104.784,31.126-159.999C850.388,369.989,839.906,316.158,819.239,265.205z M683.434,683.461
		c-68.956,68.956-160.664,106.933-258.229,106.932c-97.577,0-189.304-37.989-258.284-106.969
		C97.958,614.462,59.987,522.755,60,425.193c0.013-97.551,37.997-189.252,106.955-258.21l0,0
		C235.94,97.999,327.65,60.005,425.191,60c97.537-0.004,189.235,37.977,258.206,106.947
		c68.988,68.989,106.987,160.708,106.996,258.26C790.402,522.762,752.416,614.479,683.434,683.461z"/>
	<path fill="currentColor" d="M606.762,243.632c-11.715-11.716-30.711-11.716-42.426,0L425.197,382.771L286.059,243.632
		c-11.716-11.716-30.711-11.716-42.427,0c-11.715,11.716-11.715,30.711,0,42.427l139.139,139.138L243.632,564.336
		c-11.715,11.716-11.715,30.71,0,42.426c5.858,5.858,13.536,8.787,21.213,8.787s15.355-2.929,21.213-8.787l139.138-139.138
		l139.139,139.138c5.857,5.858,13.535,8.787,21.213,8.787s15.355-2.929,21.213-8.787c11.716-11.716,11.716-30.71,0-42.426
		L467.623,425.197l139.138-139.138C618.478,274.343,618.478,255.348,606.762,243.632z"/>
</g>
</svg>
