<?xml version="1.0" encoding="utf-8"?>
<!-- Generator: Adobe Illustrator 23.0.2, SVG Export Plug-In . SVG Version: 6.00 Build 0)  -->
<svg version="1.1" id="图层_1" xmlns="http://www.w3.org/2000/svg" xmlns:xlink="http://www.w3.org/1999/xlink" x="0px" y="0px"
	 viewBox="0 0 850.394 850.394" enable-background="new 0 0 850.394 850.394" xml:space="preserve">
<g>
	<path fill="currentColor" d="M817.124,260.161c-21.417-50.635-52.071-96.104-91.11-135.144c-39.04-39.04-84.509-69.694-135.145-91.111
		c-52.44-22.18-108.128-33.426-165.516-33.426c-57.388,0-113.075,11.246-165.515,33.426
		c-50.635,21.417-96.104,52.071-135.144,91.111S55,209.525,33.583,260.161c-22.18,52.44-33.426,108.127-33.426,165.515
		c0,57.389,11.246,113.076,33.426,165.516C55,641.827,85.655,687.297,124.694,726.336c39.04,39.04,84.509,69.693,135.144,91.111
		c52.44,22.18,108.127,33.426,165.515,33.426c57.388,0,113.075-11.246,165.516-33.426c50.636-21.418,96.104-52.071,135.145-91.111
		c39.039-39.039,69.693-84.509,91.11-135.145c22.181-52.439,33.427-108.127,33.427-165.516
		C850.551,368.288,839.305,312.601,817.124,260.161z M425.354,790.873c-201.37,0-365.196-163.827-365.196-365.197
		S223.983,60.479,425.354,60.479s365.197,163.826,365.197,365.196S626.724,790.873,425.354,790.873z"/>
	<path fill="currentColor" d="M424.885,277.948c31.312,0,56.693-25.383,56.693-56.692c0-31.312-25.381-56.692-56.693-56.692
		c-31.31,0-56.692,25.38-56.692,56.692C368.193,252.566,393.576,277.948,424.885,277.948z"/>
	<path fill="currentColor" d="M514.503,617.129h-58.617V363.414c0-16.568-13.431-30-30-30h-66.92c-16.568,0-30,13.432-30,30
		s13.432,30,30,30h36.92v223.715h-60.617c-16.568,0-30,13.432-30,30s13.432,30,30,30h179.234c16.568,0,30-13.432,30-30
		S531.071,617.129,514.503,617.129z"/>
</g>
</svg>
