<?xml version="1.0" encoding="utf-8"?>
<!-- Generator: Adobe Illustrator 22.1.0, SVG Export Plug-In . SVG Version: 6.00 Build 0)  -->
<svg width="32px" height="32px" version="1.1" xmlns="http://www.w3.org/2000/svg" xmlns:xlink="http://www.w3.org/1999/xlink" x="0px" y="0px"
	 viewBox="0 0 20 20" style="enable-background:new 0 0 20 20;vertical-align: middle;" xml:space="preserve">
	<g transform="translate(-302.000000, -1225.000000)">
		<g transform="translate(194.000000, 930.000000)">
			<g transform="translate(108.000000, 295.000000)">
				<g>
					<g transform="translate(1.500000, 1.000000)">
						<linearGradient id="ppt_masking_1" gradientUnits="userSpaceOnUse" x1="-2562.3193" y1="797.0652" x2="-2562.4883" y2="797.0652" gradientTransform="matrix(14.4 0 0 -13.5 36914.5 10771.6299)">
							<stop  offset="0" style="stop-color:#F7501C"/>
							<stop  offset="1" style="stop-color:#D93213"/>
						</linearGradient>
						<path fill="url(#ppt_masking_1)" d="M3.9,4.5h12.1c0.6,0,1.2,0.5,1.2,1.1v11.2c0,0.6-0.5,1.1-1.2,1.1H3.9 c-0.6,0-1.2-0.5-1.2-1.1V5.6C2.7,5,3.2,4.5,3.9,4.5z"/>
						<linearGradient id="ppt_masking_2" gradientUnits="userSpaceOnUse" x1="-2583.6975" y1="813.0947" x2="-2584.4312" y2="812.0947" gradientTransform="matrix(16.2 0 0 -18 41869.9023 14636.1729)">
							<stop  offset="0" style="stop-color:#FF8759"/>
							<stop  offset="1" style="stop-color:#FF5B0F"/>
						</linearGradient>
						<path fill="url(#ppt_masking_2)" d="M13.8,0C14.5,0,15,0.5,15,1.2v15.6c0,0.7,0.5,1.2,1.2,1.2h-15C0.5,18,0,17.5,0,16.8V1.2 C0,0.5,0.5,0,1.2,0H13.8z"/>
						<g transform="translate(2.700000, 5.400000)">
							<g>
								<g><path d="M4.1,0l0,4.7l4.7,0l0,0.2C8.6,7.1,6.7,8.8,4.4,8.8C2,8.8,0,6.8,0,4.4C0,2.1,1.8,0.2,4.1,0z"/></g>
								<g><path fill="#FFCFC0" d="M4.1,0l0,4.7l4.7,0l0,0.2C8.6,7.1,6.7,8.8,4.4,8.8C2,8.8,0,6.8,0,4.4 C0,2.1,1.8,0.2,4.1,0z"/></g>
							</g>
							<g transform="translate(4.950000, 0.000000)">
								<g><path d="M0.2,0c2,0.1,3.7,1.8,3.7,3.8l0-0.1H0.2L0.2,0z"/></g>
								<g><path fill="#FFFFFF" d="M0.2,0c2,0.1,3.7,1.8,3.7,3.8l0-0.1H0.2L0.2,0z"/></g>
							</g>
						</g>
					</g>
				</g>
			</g>
		</g>
	</g>
</svg>
