<?xml version="1.0" encoding="utf-8"?>
<svg width="16px" height="16px" version="1.1" id="图层_1" xmlns="http://www.w3.org/2000/svg" xmlns:xlink="http://www.w3.org/1999/xlink" x="0px" y="0px"
	 viewBox="0 0 850.394 850.394" enable-background="new 0 0 850.394 850.394" xml:space="preserve">
<g>
	<path fill="#060001" d="M841.606,198.214L736.121,92.729c-7.245-7.246-17.689-10.294-27.69-8.079
		c-10.005,2.212-18.188,9.377-21.702,19.002L459.417,726.161c-5.242,14.356,1.146,30.359,14.834,37.158
		c4.272,2.122,8.828,3.136,13.327,3.136c9.916,0,19.555-4.927,25.244-13.767l332.797-517.024
		C853.262,223.792,851.591,208.198,841.606,198.214z"/>
	<path fill="#060001" d="M278.526,92.729c-7.246-7.246-17.688-10.294-27.691-8.079c-10.004,2.212-18.188,9.377-21.702,19.002
		L1.82,726.161c-5.242,14.356,1.146,30.359,14.834,37.158c4.272,2.122,8.828,3.136,13.327,3.136c9.916,0,19.554-4.927,25.245-13.767
		l332.797-517.024c7.642-11.873,5.971-27.467-4.013-37.451L278.526,92.729z"/>
</g>
</svg>
