<svg width="16" height="16" version="1.1" id="图层_1" xmlns="http://www.w3.org/2000/svg" xmlns:xlink="http://www.w3.org/1999/xlink" x="0px" y="0px"
	 viewBox="0 0 850.394 850.394" enable-background="new 0 0 850.394 850.394" xml:space="preserve">
<g>
	<path fill="#060001" d="M426.271-1c-16.568,0-30,13.432-30,30v116.572c0,16.568,13.432,30,30,30s30-13.432,30-30V29
		C456.271,12.432,442.839-1,426.271-1z"/>
	<path fill="#060001" d="M145.838,338.784h174.392c16.568,0,30-13.432,30-30s-13.432-30-30-30H145.838
		c-79.854,0-144.82,64.847-144.82,144.555c0,79.708,64.966,144.555,144.82,144.555h174.392c16.568,0,30-13.432,30-30
		s-13.432-30-30-30H145.838c-46.77,0-84.82-37.932-84.82-84.555S99.068,338.784,145.838,338.784z"/>
	<path fill="#060001" d="M706.556,278.784H532.164c-16.568,0-30,13.432-30,30s13.432,30,30,30h174.392
		c46.771,0,84.82,37.931,84.82,84.555s-38.05,84.555-84.82,84.555H532.164c-16.568,0-30,13.432-30,30s13.432,30,30,30h174.392
		c79.854,0,144.82-64.847,144.82-144.555C851.376,343.631,786.41,278.784,706.556,278.784z"/>
	<path fill="#060001" d="M644.758,158.501c7.666,0,15.333-2.92,21.188-8.762l82.62-82.43c11.729-11.702,11.751-30.697,0.049-42.427
		c-11.703-11.729-30.697-11.75-42.426-0.049l-82.62,82.43c-11.729,11.702-11.751,30.697-0.049,42.427
		C629.381,155.563,637.068,158.501,644.758,158.501z"/>
	<path fill="#060001" d="M186.595,149.739c5.856,5.842,13.522,8.762,21.189,8.762c7.688,0,15.378-2.938,21.238-8.811
		c11.702-11.729,11.68-30.725-0.049-42.427l-82.62-82.43c-11.729-11.701-30.724-11.681-42.427,0.049
		c-11.702,11.729-11.68,30.725,0.049,42.427L186.595,149.739z"/>
	<path fill="#060001" d="M426.271,672.821c-16.568,0-30,13.432-30,30v116.572c0,16.568,13.432,30,30,30s30-13.432,30-30V702.821
		C456.271,686.253,442.839,672.821,426.271,672.821z"/>
	<path fill="#060001" d="M665.946,698.655c-11.728-11.702-30.724-11.681-42.426,0.049c-11.702,11.729-11.681,30.724,0.049,42.426
		l82.62,82.43c5.855,5.843,13.521,8.763,21.188,8.763c7.688,0,15.378-2.938,21.237-8.812c11.702-11.729,11.681-30.724-0.049-42.426
		L665.946,698.655z"/>
	<path fill="#060001" d="M186.595,698.655l-82.62,82.43c-11.729,11.702-11.751,30.697-0.049,42.426
		c5.86,5.874,13.548,8.812,21.238,8.812c7.666,0,15.333-2.921,21.189-8.763l82.62-82.43c11.729-11.702,11.751-30.697,0.049-42.426
		C217.318,686.975,198.323,686.953,186.595,698.655z"/>
</g>
</svg>
