<?xml version="1.0" encoding="utf-8"?>
<svg width="16px" height="16px" version="1.1" id="图层_1" xmlns="http://www.w3.org/2000/svg" xmlns:xlink="http://www.w3.org/1999/xlink" x="0px" y="0px"
	 viewBox="0 0 850.394 850.394" enable-background="new 0 0 850.394 850.394" xml:space="preserve">
<path fill="#3E4955" d="M820.394,736.938H503.176L823.273,416.84c11.716-11.716,11.716-30.711,0-42.427l-312.17-312.17
	c-11.716-11.715-30.71-11.715-42.426,0L8.787,522.123c-11.716,11.716-11.716,30.711-0.001,42.427l223.28,223.29
	c2.823,2.822,6.15,5.024,9.77,6.517c3.72,1.654,7.836,2.58,12.17,2.58h566.388c16.568,0,30-13.432,30-30
	S836.962,736.938,820.394,736.938z M489.891,125.883l269.743,269.744L508.159,647.102L238.413,377.355L489.891,125.883z
	 M195.986,419.781l269.747,269.747l-47.099,47.099H265.707L72.426,543.338L195.986,419.781z"/>
</svg>
