<?xml version="1.0" encoding="utf-8"?>
<svg version="1.1" id="图层_1" width="16px" height="16px" xmlns="http://www.w3.org/2000/svg" xmlns:xlink="http://www.w3.org/1999/xlink" x="0px" y="0px"
	 viewBox="0 0 850.394 850.394" enable-background="new 0 0 850.394 850.394" xml:space="preserve">
<g>
	<path fill="#040000" d="M388.661,120.507h60c16.568,0,30-13.432,30-30s-13.432-30-30-30h-60c-16.568,0-30,13.432-30,30
		S372.093,120.507,388.661,120.507z"/>
	<path fill="#040000" d="M141.732,120.507h46.929c16.568,0,30-13.432,30-30s-13.432-30-30-30h-46.929c-16.568,0-30,13.432-30,30
		S125.164,120.507,141.732,120.507z"/>
	<path fill="#040000" d="M648.661,120.507h60c16.568,0,30-13.432,30-30s-13.432-30-30-30h-60c-16.568,0-30,13.432-30,30
		S632.093,120.507,648.661,120.507z"/>
	<path fill="#040000" d="M708.661,729.887h-60c-16.568,0-30,13.432-30,30s13.432,30,30,30h60c16.568,0,30-13.432,30-30
		S725.23,729.887,708.661,729.887z"/>
	<path fill="#040000" d="M188.661,729.887h-46.929c-16.568,0-30,13.432-30,30s13.432,30,30,30h46.929c16.568,0,30-13.432,30-30
		S205.23,729.887,188.661,729.887z"/>
	<path fill="#040000" d="M448.661,729.887h-60c-16.568,0-30,13.432-30,30s13.432,30,30,30h60c16.568,0,30-13.432,30-30
		S465.23,729.887,448.661,729.887z"/>
	<path fill="#040000" d="M820.393,395.197H30c-16.568,0-30,13.432-30,30c0,16.569,13.432,30,30,30h790.393c16.568,0,30-13.432,30-30
		C850.393,408.628,836.962,395.197,820.393,395.197z"/>
</g>
</svg>
