<?xml version="1.0" encoding="utf-8"?>
<svg width="16px" height="16px" version="1.1" id="图层_1" xmlns="http://www.w3.org/2000/svg" xmlns:xlink="http://www.w3.org/1999/xlink" x="0px" y="0px"
	 viewBox="0 0 850.394 850.394" enable-background="new 0 0 850.394 850.394" xml:space="preserve">
<g>
	<path fill="#040000" d="M820.394,9.199H540.399c-30.732,0-55.734,26.051-55.734,58.071v94.389c0,16.569,13.432,30,30,30
		s30-13.431,30-30v-92.46h245.729v711.995H547.389v-77.237c0-16.568-13.432-30-30-30s-30,13.432-30,30v79.164
		c0,32.021,25.002,58.073,55.734,58.073h277.271c16.568,0,30-13.432,30-30V39.199C850.394,22.63,836.962,9.199,820.394,9.199z"/>
	<path fill="#040000" d="M333.005,673.957c-16.569,0-30,13.432-30,30v77.237H60V69.199h245.728v92.46c0,16.569,13.432,30,30,30
		s30-13.431,30-30V67.271c0-32.021-25.002-58.071-55.734-58.071H30c-16.568,0-30,13.431-30,30v771.995c0,16.568,13.432,30,30,30
		h277.271c30.732,0,55.734-26.052,55.734-58.073v-79.164C363.005,687.389,349.574,673.957,333.005,673.957z"/>
	<path fill="#040000" d="M588.142,262.251c-11.715-11.716-30.711-11.716-42.426,0L425.197,382.77L304.678,262.251
		c-11.716-11.716-30.711-11.716-42.427,0s-11.716,30.711,0,42.427L382.77,425.197L262.251,545.716
		c-11.716,11.716-11.716,30.71,0,42.426c5.858,5.858,13.536,8.787,21.213,8.787s15.355-2.929,21.213-8.787l120.518-120.519
		l120.519,120.519c5.857,5.858,13.535,8.787,21.213,8.787s15.355-2.929,21.213-8.787c11.716-11.716,11.716-30.71,0-42.426
		L467.623,425.197l120.519-120.519C599.857,292.962,599.857,273.967,588.142,262.251z"/>
</g>
</svg>
