<?xml version="1.0" encoding="utf-8"?>
<svg width="16px" height="16px" version="1.1" id="图层_1" xmlns="http://www.w3.org/2000/svg" xmlns:xlink="http://www.w3.org/1999/xlink" x="0px" y="0px"
	 viewBox="0 0 850.394 850.394" enable-background="new 0 0 850.394 850.394" xml:space="preserve">
<path fill="#040000" d="M794.046,0.001H556.948c-0.006,0-0.013,0-0.019,0s-0.013,0-0.019,0H293.485c-0.006,0-0.013,0-0.019,0
	s-0.013,0-0.019,0H56.348c-31.07,0-56.347,26.351-56.347,58.741V791.65c0,32.391,25.277,58.743,56.347,58.743h737.698
	c31.069,0,56.347-26.353,56.347-58.743V58.742C850.393,26.352,825.115,0.001,794.046,0.001z M323.465,526.929V323.465h203.463
	v203.464H323.465z M526.929,586.929v203.465H323.465V586.929H526.929z M60.001,323.465h203.464v203.464H60.001V323.465z
	 M323.465,263.465V60.001h203.463v203.464H323.465z M586.929,323.465h203.464v203.464H586.929V323.465z M790.393,263.465H586.929
	V60.001h203.464V263.465z M263.465,60.001v203.464H60.001V60.001H263.465z M60.001,586.929h203.464v203.465H60.001V586.929z
	 M586.929,790.394V586.929h203.464v203.465H586.929z"/>
</svg>
