<?xml version="1.0" encoding="utf-8"?>
<svg width="16px" height="16px" version="1.1" id="图层_1" xmlns="http://www.w3.org/2000/svg" xmlns:xlink="http://www.w3.org/1999/xlink" x="0px" y="0px"
	 viewBox="0 0 850.394 850.394" enable-background="new 0 0 850.394 850.394" xml:space="preserve">
<g>
	<path fill="#040000" d="M538.585,286.773c7.678,0,15.355-2.929,21.213-8.787c11.716-11.716,11.716-30.711,0-42.427l-92.173-92.173
		l92.172-92.172c11.716-11.716,11.716-30.711,0-42.427c-11.715-11.716-30.711-11.716-42.426,0l-92.172,92.172L333.026,8.789
		c-11.716-11.716-30.711-11.716-42.427,0s-11.716,30.711,0,42.427l92.173,92.172L290.6,235.56
		c-11.715,11.716-11.715,30.711,0,42.427c5.858,5.858,13.536,8.787,21.213,8.787s15.355-2.929,21.213-8.787l92.172-92.173
		l92.173,92.173C523.229,283.845,530.907,286.773,538.585,286.773z"/>
	<path fill="#040000" d="M293.472,376.332c-16.568,0-30,13.432-30,30v120.682c-0.739-0.055-1.483-0.092-2.236-0.092H60.002v-203.46
		h117.64c16.568,0,30-13.432,30-30s-13.432-30-30-30H60.002V60.002h110.85c16.568,0,30-13.432,30-30c0-16.569-13.432-30-30-30
		H58.742c-32.389,0-58.74,25.274-58.74,56.34v737.7c0,31.071,26.351,56.35,58.74,56.35h264.73v-444.06
		C323.472,389.764,310.04,376.332,293.472,376.332z M60.002,790.392v-203.47h201.234c0.753,0,1.497-0.037,2.236-0.092v203.561
		H60.002z"/>
	<path fill="#040000" d="M791.651,0.002h-112.1c-16.568,0-30,13.431-30,30c0,16.568,13.432,30,30,30h110.84v203.46h-117.64
		c-16.568,0-30,13.432-30,30s13.432,30,30,30h117.64v203.46h-203.46v-120.59c0-16.568-13.432-30-30-30s-30,13.432-30,30v444.06
		h264.72c32.39,0,58.74-25.278,58.74-56.35v-737.7C850.392,25.276,824.041,0.002,791.651,0.002z M586.932,790.392v-203.47h203.46
		v203.47H586.932z"/>
</g>
</svg>
