<?xml version="1.0" encoding="utf-8"?>
<svg width="16px" height="16px"  version="1.1" id="图层_1" xmlns="http://www.w3.org/2000/svg" xmlns:xlink="http://www.w3.org/1999/xlink" x="0px" y="0px"
	 viewBox="0 0 850.394 850.394" enable-background="new 0 0 850.394 850.394" xml:space="preserve">
<g>
	<path fill="#040000" d="M820.394,9.199H540.399c-30.732,0-55.734,26.051-55.734,58.071v150.431c0,16.569,13.432,30,30,30
		s30-13.431,30-30V69.199h245.729v711.995H547.389V633.009c0-16.568-13.432-30-30-30s-30,13.432-30,30v150.112
		c0,32.021,25.002,58.073,55.734,58.073h277.271c16.568,0,30-13.432,30-30V39.199C850.394,22.63,836.962,9.199,820.394,9.199z"/>
	<path fill="#040000" d="M550.137,550.277c5.859,5.858,13.535,8.787,21.214,8.787c7.677,0,15.355-2.93,21.213-8.786
		c11.716-11.716,11.716-30.711,0.001-42.427l-49.419-49.42h138.809c16.568,0,30-13.432,30-30s-13.432-30-30-30H543.146l51.73-51.73
		c11.716-11.716,11.716-30.711,0-42.426c-11.715-11.716-30.711-11.716-42.426,0L449.507,407.218
		c-0.484,0.484-0.94,0.985-1.385,1.492c-0.101,0.116-0.201,0.233-0.301,0.35c-0.9,1.062-1.715,2.171-2.444,3.319
		c-0.038,0.06-0.075,0.12-0.112,0.18c-0.757,1.212-1.42,2.464-1.987,3.75c-0.012,0.028-0.024,0.055-0.036,0.083
		c-0.57,1.302-1.044,2.635-1.42,3.991c-0.017,0.059-0.032,0.119-0.048,0.178c-0.356,1.316-0.623,2.65-0.797,3.995
		c-0.017,0.132-0.032,0.265-0.048,0.398c-0.07,0.602-0.125,1.204-0.159,1.808c-0.003,0.06-0.01,0.121-0.013,0.181
		c-0.031,0.633-0.037,1.266-0.028,1.9c0.002,0.174,0.007,0.348,0.012,0.523c0.019,0.608,0.051,1.215,0.106,1.82
		c0.004,0.038,0.005,0.077,0.008,0.115c0.062,0.652,0.154,1.3,0.258,1.947c0.023,0.139,0.046,0.278,0.07,0.416
		c0.241,1.365,0.577,2.715,1.007,4.042c0.016,0.048,0.031,0.097,0.047,0.145c0.462,1.399,1.028,2.77,1.701,4.103
		c0.003,0.006,0.006,0.013,0.01,0.019c0.334,0.66,0.692,1.311,1.079,1.95c0.001,0.001,0.002,0.003,0.003,0.004
		c0.352,0.582,0.728,1.153,1.123,1.716c0.052,0.075,0.103,0.15,0.156,0.224c0.391,0.547,0.8,1.084,1.233,1.609
		c0.063,0.077,0.13,0.149,0.194,0.226c0.354,0.421,0.721,0.833,1.102,1.238c0.129,0.138,0.259,0.276,0.391,0.411
		c0.094,0.096,0.182,0.196,0.277,0.291L550.137,550.277z"/>
	<path fill="#040000" d="M333.005,603.009c-16.569,0-30,13.432-30,30v148.186H60V69.199h245.728v148.502c0,16.569,13.432,30,30,30
		s30-13.431,30-30V67.271c0-32.021-25.002-58.071-55.734-58.071H30c-16.568,0-30,13.431-30,30v771.995c0,16.568,13.432,30,30,30
		h277.271c30.732,0,55.734-26.052,55.734-58.073V633.009C363.005,616.44,349.574,603.009,333.005,603.009z"/>
	<path fill="#040000" d="M409.636,426.943c-0.003-0.06-0.01-0.121-0.013-0.181c-0.033-0.604-0.089-1.207-0.159-1.808
		c-0.016-0.133-0.03-0.265-0.048-0.398c-0.174-1.344-0.441-2.678-0.797-3.993c-0.016-0.061-0.032-0.121-0.049-0.181
		c-0.376-1.355-0.85-2.688-1.42-3.99c-0.012-0.028-0.024-0.055-0.036-0.083c-0.567-1.285-1.23-2.538-1.987-3.749
		c-0.038-0.06-0.075-0.121-0.113-0.181c-0.729-1.148-1.543-2.257-2.443-3.319c-0.099-0.117-0.2-0.234-0.301-0.351
		c-0.444-0.508-0.901-1.008-1.385-1.492L297.942,304.274c-11.716-11.716-30.71-11.715-42.426,0s-11.715,30.71,0,42.426l51.731,51.73
		H168.44c-16.568,0-30,13.432-30,30s13.432,30,30,30h138.809l-49.419,49.42c-11.716,11.716-11.715,30.711,0,42.426
		c5.858,5.858,13.535,8.787,21.213,8.787s15.355-2.929,21.213-8.787l100.631-100.633c0.094-0.094,0.18-0.192,0.272-0.287
		c0.135-0.139,0.268-0.28,0.4-0.421c0.376-0.401,0.741-0.81,1.091-1.226c0.066-0.079,0.136-0.155,0.201-0.234
		c0.432-0.525,0.841-1.062,1.232-1.608c0.052-0.073,0.102-0.147,0.154-0.221c0.831-1.183,1.568-2.412,2.209-3.678
		c0.001-0.002,0.002-0.003,0.002-0.005c0.677-1.338,1.246-2.715,1.709-4.121c0.014-0.041,0.026-0.083,0.04-0.124
		c0.433-1.333,0.771-2.689,1.012-4.059c0.024-0.136,0.047-0.271,0.069-0.407c0.105-0.649,0.197-1.301,0.259-1.954
		c0.003-0.035,0.004-0.069,0.007-0.104c0.056-0.61,0.088-1.221,0.107-1.833c0.005-0.172,0.01-0.344,0.012-0.517
		C409.673,428.212,409.668,427.577,409.636,426.943z"/>
</g>
</svg>
