<?xml version="1.0" encoding="utf-8"?>
<svg width="16px" height="16px"  version="1.1" id="图层_1" xmlns="http://www.w3.org/2000/svg" xmlns:xlink="http://www.w3.org/1999/xlink" x="0px" y="0px"
	 viewBox="0 0 850.394 850.394" enable-background="new 0 0 850.394 850.394" xml:space="preserve">
<g>
	<path fill="#040000" d="M572.405,559.796c5.857,5.858,13.535,8.787,21.213,8.787s15.355-2.929,21.213-8.787l92.173-92.173
		l92.173,92.173c5.858,5.858,13.534,8.787,21.213,8.787c7.677,0,15.356-2.93,21.213-8.787c11.716-11.716,11.716-30.71,0-42.426
		l-92.173-92.173l92.173-92.173c11.716-11.716,11.716-30.711,0-42.427c-11.715-11.716-30.711-11.716-42.426,0l-92.173,92.173
		l-92.173-92.173c-11.715-11.715-30.711-11.715-42.426,0c-11.716,11.716-11.716,30.711,0,42.427l92.173,92.173l-92.173,92.173
		C560.689,529.086,560.689,548.08,572.405,559.796z"/>
	<path fill="#040000" d="M794.05,0H56.35C25.278,0,0,26.351,0,58.74v264.73h444.06c16.568,0,30-13.432,30-30s-13.432-30-30-30
		H323.378c0.055-0.739,0.092-1.483,0.092-2.236V60H526.93v117.64c0,16.568,13.432,30,30,30s30-13.432,30-30V60h203.46v110.85
		c0,16.568,13.432,30,30,30s30-13.432,30-30V58.74C850.39,26.351,825.116,0,794.05,0z M263.562,263.47H60V60h203.47v201.234
		C263.47,261.987,263.507,262.731,263.562,263.47z"/>
	<path fill="#040000" d="M820.39,649.55c-16.568,0-30,13.432-30,30v110.84H586.93V672.75c0-16.568-13.432-30-30-30s-30,13.432-30,30
		v117.64H323.47V586.93H444.06c16.568,0,30-13.432,30-30s-13.432-30-30-30H0V791.65c0,32.389,25.278,58.739,56.35,58.739h737.7
		c31.066,0,56.34-26.351,56.34-58.739V679.55C850.39,662.981,836.958,649.55,820.39,649.55z M60,586.93h203.47v203.46H60V586.93z"/>
</g>
</svg>
