<?xml version="1.0" encoding="utf-8"?>
<!-- Generator: Adobe Illustrator 22.1.0, SVG Export Plug-In . SVG Version: 6.00 Build 0)  -->
<svg width="20px" height="20px" version="1.1" xmlns="http://www.w3.org/2000/svg" xmlns:xlink="http://www.w3.org/1999/xlink" x="0px" y="0px" viewBox="0 0 32 32" style="enable-background:new 0 0 32 32;" xml:space="preserve">
	<g transform="translate(-140.000000, -391.000000)">
		<g transform="translate(140.000000, 391.000000)">
			<path fill="#1E6FFF" d="M5.3,1C5.1,1,4.8,1.2,4.8,1.5L0,29.3C-0.1,29.7,0.2,30,0.6,30h11.3l0.9-0.3h5.3l0.7,0.3h8.7
				c0.3,0,0.5-0.2,0.6-0.5L32,7l-6.1-6H5.3z"/>
            <path fill="#00DCFF" d="M32,7l-6.1-6L25,6.2C24.9,6.6,25.2,7,25.6,7H32z"/>
            <polygon fill="#FFFFFF" points="17.1,2 15.9,8.8 5,8.8 9.8,14.3 15,14.3 12.4,30 19.2,30 21.8,14.3 29.7,14.3,30,14.3"/>
		</g>
	</g>
</svg>
