<?xml version="1.0" encoding="utf-8"?>
<svg version="1.1" id="图形" xmlns="http://www.w3.org/2000/svg" xmlns:xlink="http://www.w3.org/1999/xlink" x="0px" y="0px"
	  width="16px" height="16px" viewBox="15.167 -16.333 1000.637 1000.678"
	 enable-background="new 15.167 -16.333 1000.637 1000.678" xml:space="preserve">
<g>
	<path d="M302.685,645.136c27.619,27.618,59.797,49.31,95.64,64.47c37.141,15.71,76.559,23.675,117.16,23.675
		c40.601,0,80.02-7.965,117.16-23.675c35.843-15.16,68.021-36.852,95.64-64.47c27.619-27.619,49.31-59.798,64.47-95.641
		c15.71-37.141,23.675-76.559,23.675-117.16V120.242c0-33.137-26.863-60-60-60s-60,26.863-60,60v312.094
		c0,99.773-81.171,180.945-180.944,180.945c-99.773,0-180.944-81.172-180.944-180.945V120.242c0-33.137-26.863-60-60-60
		s-60,26.863-60,60v312.094c0,40.601,7.965,80.019,23.674,117.16C253.375,585.338,275.066,617.517,302.685,645.136z"/>
	<path d="M869.816,833.77H161.154c-22.091,0-40,17.908-40,40s17.909,40,40,40h708.662c22.092,0,40-17.908,40-40
		S891.908,833.77,869.816,833.77z"/>
</g>
</svg>
