<svg height="16" width="16" version="1.1" id="图层_1" xmlns="http://www.w3.org/2000/svg" xmlns:xlink="http://www.w3.org/1999/xlink" x="0px" y="0px"
	 viewBox="0 0 850.394 850.394" enable-background="new 0 0 850.394 850.394" xml:space="preserve">
<g>
	<path fill="#3E4955" d="M835.631,236.189c-9.148-5.394-20.466-5.55-29.759-0.409L682.51,304.023V135.409
		c0-28.379-23.087-51.467-51.465-51.467H51.466C23.088,83.942,0,107.03,0,135.409v579.578c0,28.378,23.087,51.465,51.466,51.465
		h579.579c28.378,0,51.465-23.087,51.465-51.465V547.683l123.578,67.045c4.467,2.424,9.388,3.631,14.305,3.631
		c5.314,0,10.623-1.411,15.344-4.221c9.089-5.408,14.657-15.203,14.657-25.779V262.032
		C850.394,251.412,844.779,241.583,835.631,236.189z M60,706.451V143.942H622.51v210.936c0,0.142-0.002,0.284,0,0.426v141.72
		c-0.001,0.158-0.001,0.316,0,0.474v208.953H60z M790.394,537.952l-107.884-58.53V372.591l107.884-59.68V537.952z"/>
	<path fill="#3E4955" d="M313.472,219.309H174.068c-16.568,0-30,13.432-30,30s13.432,30,30,30h139.404c16.568,0,30-13.432,30-30
		S330.04,219.309,313.472,219.309z"/>
</g>
</svg>