<?xml version="1.0" encoding="utf-8"?>
<svg version="1.1" id="图形" xmlns="http://www.w3.org/2000/svg" xmlns:xlink="http://www.w3.org/1999/xlink" x="0px" y="0px"
	 width="16px" height="16px" viewBox="15.167 -16.333 1000.637 1000.678"
	 enable-background="new 15.167 -16.333 1000.637 1000.678" xml:space="preserve">
<g>
	<path d="M368.87,707.359c4.832,17.309,20.598,29.246,38.522,29.246c0.187,0,0.377-0.001,0.564-0.004
		c18.156-0.254,33.863-12.704,38.254-30.323l69.344-278.245l77.968,279.326c4.863,17.423,20.813,29.45,38.899,29.244
		c18.087-0.168,33.811-12.453,38.349-29.962l110.207-425.197c5.543-21.385-7.3-43.214-28.685-48.757
		c-21.382-5.543-43.213,7.3-48.757,28.685l-72.917,281.327l-78.727-282.045c-4.831-17.309-20.598-29.246-38.522-29.246
		c-0.187,0-0.377,0.001-0.564,0.004c-18.155,0.254-33.862,12.705-38.253,30.323l-69.344,278.244l-77.967-279.325
		c-5.939-21.278-28.002-33.713-49.281-27.773c-21.278,5.939-33.712,28.003-27.773,49.281L368.87,707.359z"/>
	<path d="M911.359,18.808H119.612c-38.226,0-69.324,31.099-69.324,69.325V879.88c0,38.225,31.099,69.323,69.324,69.323h791.747
		c38.225,0,69.323-31.099,69.323-69.323V88.134C980.682,49.907,949.583,18.808,911.359,18.808z M900.682,869.203H130.288V98.808
		h770.394V869.203z"/>
</g>
</svg>
